<?xml version="1.0" standalone="no"?>
<!DOCTYPE svg PUBLIC "-//W3C//DTD SVG 20010904//EN"
 "http://www.w3.org/TR/2001/REC-SVG-20010904/DTD/svg10.dtd">
<svg version="1.0" xmlns="http://www.w3.org/2000/svg"
 width="512.000000pt" height="512.000000pt" viewBox="0 0 512.000000 512.000000"
 preserveAspectRatio="xMidYMid meet">
<metadata>
Created by potrace 1.11, written by Peter Selinger 2001-2013
</metadata>
<g transform="translate(0.000000,512.000000) scale(0.100000,-0.100000)"
fill="#000000" stroke="none">
<path d="M2375 5114 c-538 -55 -959 -215 -1365 -517 -122 -92 -395 -365 -487
-487 -264 -355 -428 -742 -495 -1175 -29 -191 -31 -530 -4 -720 62 -440 233
-850 499 -1204 93 -123 285 -322 414 -428 288 -237 651 -420 1008 -508 203
-50 325 -66 550 -72 633 -17 1218 186 1705 591 482 401 798 965 896 1601 26
170 26 560 0 730 -66 429 -237 836 -498 1182 -89 118 -282 320 -399 418 -359
300 -795 496 -1262 566 -126 19 -465 33 -562 23z m1445 -2554 l0 -1730 -1260
0 -1260 0 0 1730 0 1730 1260 0 1260 0 0 -1730z"/>
<path d="M1760 3068 l0 -763 224 224 224 224 4 131 c5 185 20 214 208 401
l140 140 0 -1068 0 -1067 400 0 400 0 0 1270 0 1270 -800 0 -800 0 0 -762z"/>
</g>
</svg>
